<svg width="640" height="180" viewBox="0 0 640 180" fill="none" xmlns="http://www.w3.org/2000/svg">
  <rect width="640" height="180" rx="24" fill="#0F172A"/>
  <path d="M88 118L118 58L144 88L172 54L206 118H88Z" fill="#F59E0B"/>
  <path d="M132 88L152 108L172 88" stroke="#0F172A" stroke-width="8" stroke-linecap="round" stroke-linejoin="round"/>
  <circle cx="138" cy="92" r="4" fill="#0F172A"/>
  <circle cx="166" cy="92" r="4" fill="#0F172A"/>
  <path d="M220 56H258V68H234V88H254V100H234V124C234 133.941 242.059 142 252 142H258V154H250C232.327 154 218 139.673 218 122V56H220Z" fill="#E5E7EB"/>
  <path d="M286 56H360V68H302V92H350V104H302V128H360V140H286V56Z" fill="#E5E7EB"/>
  <path d="M388 56H404V140H388V56Z" fill="#38BDF8"/>
  <path d="M430 56H487C504.673 56 519 70.327 519 88V108C519 125.673 504.673 140 487 140H430V128H485C496.046 128 505 119.046 505 108V88C505 76.9543 496.046 68 485 68H430V56Z" fill="#38BDF8"/>
  <text x="219" y="42" fill="#94A3B8" font-family="Inter, Arial, sans-serif" font-size="16" letter-spacing="3.2">JC METHODOLOGY</text>
</svg>
